<svg xmlns="http://www.w3.org/2000/svg" xmlns:xlink="http://www.w3.org/1999/xlink" width="600" zoomAndPan="magnify" viewBox="0 0 450 149.999998" height="200" preserveAspectRatio="xMidYMid meet" version="1.0"><defs><g><g id="id1"/></g><clipPath id="id2"><path d="M 121 73 L 158.726562 73 L 158.726562 107 L 121 107 Z M 121 73 " clip-rule="nonzero"/></clipPath></defs><rect x="-45" width="540" fill="rgb(100%, 100%, 100%)" y="-15" height="179.999997" fill-opacity="1"/><rect x="-45" width="540" fill="rgb(17.248535%, 23.919678%, 38.819885%)" y="-15" height="179.999997" fill-opacity="1"/><rect x="-45" width="540" fill="rgb(100%, 100%, 100%)" y="-15" height="179.999997" fill-opacity="1"/><rect x="-45" width="540" fill="rgb(17.248535%, 23.919678%, 38.819885%)" y="-15" height="179.999997" fill-opacity="1"/><g clip-path="url(#id2)"><path fill="rgb(100%, 100%, 100%)" d="M 158.390625 90.835938 C 157.996094 94.390625 157.558594 98.210938 157.074219 102.351562 C 156.667969 105.804688 154.046875 107.199219 151.230469 105.207031 C 147.320312 102.441406 143.285156 99.535156 139.09375 96.570312 C 134.738281 93.492188 130.214844 90.292969 125.488281 87.007812 C 121.851562 84.484375 120.296875 79.6875 122.019531 76.585938 C 122.667969 75.414062 123.304688 74.257812 123.929688 73.132812 C 128.644531 76.632812 133.183594 80.007812 137.53125 83.28125 C 141.730469 86.4375 145.765625 89.519531 149.660156 92.488281 C 150.523438 88.144531 151.300781 84.175781 152.019531 80.527344 C 152.980469 81.316406 153.929688 82.109375 154.875 82.894531 C 157.109375 84.75 158.679688 88.257812 158.390625 90.835938 Z M 158.390625 90.835938 " fill-opacity="1" fill-rule="evenodd"/></g><path fill="rgb(100%, 100%, 100%)" d="M 141.730469 53.746094 C 144.476562 56.195312 147.15625 58.597656 149.761719 60.957031 C 151.734375 62.742188 153.046875 65.574219 152.691406 67.3125 C 152.1875 69.785156 151.671875 72.421875 151.101562 75.222656 C 150.492188 78.222656 149.839844 81.449219 149.125 84.925781 C 148.558594 87.695312 145.875 88.375 143.144531 86.242188 C 142.03125 85.375 140.90625 84.5 139.769531 83.613281 C 141 79.613281 142.121094 75.941406 143.144531 72.570312 C 144.089844 69.464844 144.960938 66.578125 145.777344 63.902344 C 142.425781 60.96875 138.972656 57.96875 135.414062 54.890625 C 135.753906 54.214844 136.082031 53.550781 136.40625 52.898438 C 137.160156 51.386719 139.5625 51.8125 141.730469 53.746094 Z M 141.730469 53.746094 " fill-opacity="1" fill-rule="evenodd"/><path fill="rgb(94.509888%, 52.549744%, 26.669312%)" d="M 104.25 48.550781 C 106.964844 46.128906 109.453125 43.925781 111.738281 41.890625 C 113.371094 40.429688 117.035156 41.304688 119.894531 43.703125 C 123.648438 46.851562 127.300781 49.90625 130.835938 52.871094 C 134.265625 55.75 137.59375 58.558594 140.824219 61.304688 C 143.164062 63.292969 144.539062 66.425781 143.902344 68.371094 C 143.636719 69.175781 143.363281 70.003906 143.09375 70.84375 C 139.460938 67.859375 135.714844 64.78125 131.835938 61.632812 C 127.824219 58.375 123.65625 55.027344 119.335938 51.566406 C 117.03125 54.363281 114.496094 57.457031 111.679688 60.878906 C 110.15625 59.757812 108.609375 58.628906 107.058594 57.496094 C 103.222656 54.699219 101.976562 50.578125 104.25 48.550781 Z M 104.25 48.550781 " fill-opacity="1" fill-rule="evenodd"/><path fill="rgb(94.509888%, 52.549744%, 26.669312%)" d="M 121.335938 104.554688 C 115.925781 101.089844 110.265625 97.511719 104.296875 93.835938 C 99.480469 90.871094 98.035156 84.847656 101.023438 80.796875 C 104.671875 75.847656 107.960938 71.410156 110.914062 67.410156 C 113.585938 63.792969 116.019531 60.5 118.230469 57.488281 C 119.75 55.421875 123.355469 55.796875 126.25 58.160156 C 127.394531 59.09375 128.53125 60.023438 129.65625 60.933594 C 127.996094 63.996094 126.179688 67.34375 124.1875 71.007812 C 121.984375 75.058594 119.535156 79.554688 116.796875 84.546875 C 122.492188 88.460938 127.917969 92.242188 133.097656 95.898438 C 132.554688 97.523438 131.980469 99.210938 131.390625 100.941406 C 129.886719 105.339844 125.371094 107.140625 121.335938 104.554688 Z M 121.335938 104.554688 " fill-opacity="1" fill-rule="evenodd"/><g fill="rgb(100%, 100%, 100%)" fill-opacity="1"><g transform="translate(162.89002, 68.012878)"><g><path d="M 16.484375 -11.078125 C 16.859375 -11.078125 17.128906 -10.992188 17.296875 -10.828125 C 17.472656 -10.660156 17.5625 -10.394531 17.5625 -10.03125 L 17.5625 -2.015625 C 17.5625 -1.179688 16.867188 -0.601562 15.484375 -0.28125 C 14.109375 0.0390625 12.5625 0.203125 10.84375 0.203125 C 7.6875 0.203125 5.328125 -0.640625 3.765625 -2.328125 C 2.210938 -4.023438 1.4375 -6.648438 1.4375 -10.203125 C 1.4375 -17.179688 4.660156 -20.671875 11.109375 -20.671875 C 12.003906 -20.671875 12.925781 -20.582031 13.875 -20.40625 C 14.820312 -20.226562 15.597656 -19.988281 16.203125 -19.6875 C 16.816406 -19.382812 17.125 -19.054688 17.125 -18.703125 C 17.125 -18.472656 17.03125 -18.164062 16.84375 -17.78125 C 16.664062 -17.40625 16.445312 -17.070312 16.1875 -16.78125 C 15.9375 -16.488281 15.71875 -16.34375 15.53125 -16.34375 C 15.46875 -16.34375 15.222656 -16.4375 14.796875 -16.625 C 14.378906 -16.820312 13.851562 -17 13.21875 -17.15625 C 12.59375 -17.3125 11.867188 -17.390625 11.046875 -17.390625 C 9.078125 -17.390625 7.640625 -16.796875 6.734375 -15.609375 C 5.828125 -14.421875 5.375 -12.648438 5.375 -10.296875 C 5.375 -5.472656 7.21875 -3.0625 10.90625 -3.0625 C 11.894531 -3.0625 12.832031 -3.148438 13.71875 -3.328125 L 13.71875 -7.8125 L 10.84375 -7.8125 C 10.570312 -7.8125 10.375 -7.90625 10.25 -8.09375 C 10.125 -8.289062 10.0625 -8.613281 10.0625 -9.0625 L 10.0625 -9.828125 C 10.0625 -10.273438 10.125 -10.59375 10.25 -10.78125 C 10.375 -10.976562 10.570312 -11.078125 10.84375 -11.078125 Z M 16.484375 -11.078125 "/></g></g></g><g fill="rgb(100%, 100%, 100%)" fill-opacity="1"><g transform="translate(182.533735, 68.012878)"><g><path d="M 3.859375 0.0625 C 2.828125 0.0625 2.3125 -0.222656 2.3125 -0.796875 L 2.3125 -19.375 C 2.3125 -19.75 2.394531 -20.023438 2.5625 -20.203125 C 2.726562 -20.378906 2.992188 -20.46875 3.359375 -20.46875 L 8.796875 -20.46875 C 11.234375 -20.46875 13.039062 -20.019531 14.21875 -19.125 C 15.394531 -18.226562 15.984375 -16.878906 15.984375 -15.078125 C 15.984375 -13.953125 15.679688 -12.976562 15.078125 -12.15625 C 14.472656 -11.34375 13.644531 -10.726562 12.59375 -10.3125 L 12.59375 -10.203125 C 13.03125 -10.046875 13.441406 -9.695312 13.828125 -9.15625 C 14.210938 -8.625 14.5625 -7.96875 14.875 -7.1875 L 17.359375 -1 C 17.441406 -0.71875 17.484375 -0.550781 17.484375 -0.5 C 17.484375 -0.125 16.957031 0.0625 15.90625 0.0625 L 15.03125 0.0625 C 14.164062 0.0625 13.65625 -0.125 13.5 -0.5 L 11.21875 -6.234375 C 10.875 -7.023438 10.460938 -7.578125 9.984375 -7.890625 C 9.503906 -8.203125 8.78125 -8.359375 7.8125 -8.359375 L 6.140625 -8.359375 L 6.140625 -0.796875 C 6.140625 -0.222656 5.625 0.0625 4.59375 0.0625 Z M 9.296875 -11.671875 C 10.035156 -11.671875 10.675781 -11.957031 11.21875 -12.53125 C 11.769531 -13.101562 12.046875 -13.78125 12.046875 -14.5625 C 12.046875 -15.394531 11.78125 -16.039062 11.25 -16.5 C 10.726562 -16.957031 10.007812 -17.1875 9.09375 -17.1875 L 6.140625 -17.1875 L 6.140625 -11.671875 Z M 9.296875 -11.671875 "/></g></g></g><g fill="rgb(100%, 100%, 100%)" fill-opacity="1"><g transform="translate(200.365087, 68.012878)"><g><path d="M 10.703125 0.203125 C 7.722656 0.203125 5.429688 -0.691406 3.828125 -2.484375 C 2.234375 -4.273438 1.4375 -6.867188 1.4375 -10.265625 C 1.4375 -13.628906 2.234375 -16.203125 3.828125 -17.984375 C 5.429688 -19.773438 7.722656 -20.671875 10.703125 -20.671875 C 13.679688 -20.671875 15.960938 -19.78125 17.546875 -18 C 19.140625 -16.226562 19.9375 -13.648438 19.9375 -10.265625 C 19.9375 -6.867188 19.140625 -4.273438 17.546875 -2.484375 C 15.960938 -0.691406 13.679688 0.203125 10.703125 0.203125 Z M 10.703125 -3.0625 C 12.410156 -3.0625 13.71875 -3.675781 14.625 -4.90625 C 15.53125 -6.132812 15.984375 -7.921875 15.984375 -10.265625 C 15.984375 -12.597656 15.535156 -14.367188 14.640625 -15.578125 C 13.742188 -16.785156 12.429688 -17.390625 10.703125 -17.390625 C 8.960938 -17.390625 7.640625 -16.785156 6.734375 -15.578125 C 5.828125 -14.367188 5.375 -12.597656 5.375 -10.265625 C 5.375 -7.921875 5.828125 -6.132812 6.734375 -4.90625 C 7.640625 -3.675781 8.960938 -3.0625 10.703125 -3.0625 Z M 10.703125 -3.0625 "/></g></g></g><g fill="rgb(100%, 100%, 100%)" fill-opacity="1"><g transform="translate(221.73348, 68.012878)"><g><path d="M 10.40625 0.203125 C 7.757812 0.203125 5.710938 -0.40625 4.265625 -1.625 C 2.828125 -2.84375 2.109375 -4.550781 2.109375 -6.75 L 2.109375 -19.671875 C 2.109375 -20.234375 2.625 -20.515625 3.65625 -20.515625 L 4.390625 -20.515625 C 5.421875 -20.515625 5.9375 -20.234375 5.9375 -19.671875 L 5.9375 -6.90625 C 5.9375 -5.769531 6.351562 -4.84375 7.1875 -4.125 C 8.03125 -3.414062 9.101562 -3.0625 10.40625 -3.0625 C 11.707031 -3.0625 12.78125 -3.421875 13.625 -4.140625 C 14.476562 -4.867188 14.90625 -5.789062 14.90625 -6.90625 L 14.90625 -19.671875 C 14.90625 -20.234375 15.421875 -20.515625 16.453125 -20.515625 L 17.15625 -20.515625 C 18.1875 -20.515625 18.703125 -20.234375 18.703125 -19.671875 L 18.703125 -6.75 C 18.703125 -4.550781 17.984375 -2.84375 16.546875 -1.625 C 15.109375 -0.40625 13.0625 0.203125 10.40625 0.203125 Z M 10.40625 0.203125 "/></g></g></g><g fill="rgb(100%, 100%, 100%)" fill-opacity="1"><g transform="translate(242.546482, 68.012878)"><g><path d="M 3.734375 0.0625 C 3.191406 0.0625 2.796875 -0.00390625 2.546875 -0.140625 C 2.304688 -0.273438 2.1875 -0.492188 2.1875 -0.796875 L 2.1875 -19.375 C 2.1875 -19.75 2.269531 -20.023438 2.4375 -20.203125 C 2.601562 -20.378906 2.875 -20.46875 3.25 -20.46875 L 9.328125 -20.46875 C 11.117188 -20.46875 12.695312 -20.035156 14.0625 -19.171875 C 15.425781 -18.316406 16.109375 -16.691406 16.109375 -14.296875 C 16.109375 -12.617188 15.710938 -11.3125 14.921875 -10.375 C 14.128906 -9.4375 13.238281 -8.804688 12.25 -8.484375 C 11.269531 -8.171875 10.394531 -8.015625 9.625 -8.015625 L 6.015625 -8.015625 L 6.015625 -0.796875 C 6.015625 -0.222656 5.5 0.0625 4.46875 0.0625 Z M 9.296875 -11.3125 C 10.054688 -11.3125 10.726562 -11.53125 11.3125 -11.96875 C 11.894531 -12.40625 12.1875 -13.179688 12.1875 -14.296875 C 12.1875 -15.367188 11.882812 -16.117188 11.28125 -16.546875 C 10.675781 -16.972656 9.96875 -17.1875 9.15625 -17.1875 L 6.015625 -17.1875 L 6.015625 -11.3125 Z M 9.296875 -11.3125 "/></g></g></g><g fill="rgb(100%, 100%, 100%)" fill-opacity="1"><g transform="translate(259.208548, 68.012878)"><g/></g></g><g fill="rgb(94.509888%, 52.549744%, 26.669312%)" fill-opacity="1"><g transform="translate(266.189927, 68.012878)"><g><path d="M 2.015625 0 C 1.742188 0 1.546875 -0.09375 1.421875 -0.28125 C 1.296875 -0.476562 1.234375 -0.800781 1.234375 -1.25 L 1.234375 -1.703125 C 1.234375 -2.148438 1.296875 -2.46875 1.421875 -2.65625 C 1.546875 -2.851562 1.742188 -2.953125 2.015625 -2.953125 L 6.3125 -2.953125 L 6.3125 -17.015625 L 1.921875 -16.3125 C 1.628906 -16.3125 1.421875 -16.546875 1.296875 -17.015625 C 1.171875 -17.484375 1.109375 -17.960938 1.109375 -18.453125 C 1.109375 -18.835938 1.332031 -19.078125 1.78125 -19.171875 L 8.890625 -20.546875 C 9.140625 -20.546875 9.382812 -20.476562 9.625 -20.34375 C 9.875 -20.207031 10 -20.050781 10 -19.875 L 10 -2.953125 L 13.53125 -2.953125 C 13.800781 -2.953125 14 -2.851562 14.125 -2.65625 C 14.257812 -2.46875 14.328125 -2.148438 14.328125 -1.703125 L 14.328125 -1.25 C 14.328125 -0.800781 14.257812 -0.476562 14.125 -0.28125 C 14 -0.09375 13.800781 0 13.53125 0 Z M 2.015625 0 "/></g></g></g><g fill="rgb(94.509888%, 52.549744%, 26.669312%)" fill-opacity="1"><g transform="translate(281.828894, 68.012878)"><g><path d="M 1.875 0 C 1.695312 0 1.53125 -0.242188 1.375 -0.734375 C 1.21875 -1.234375 1.140625 -1.703125 1.140625 -2.140625 C 1.140625 -2.347656 1.175781 -2.492188 1.25 -2.578125 L 8.6875 -11.78125 C 9.226562 -12.457031 9.597656 -13.035156 9.796875 -13.515625 C 10.003906 -13.992188 10.109375 -14.515625 10.109375 -15.078125 C 10.109375 -15.898438 9.832031 -16.539062 9.28125 -17 C 8.726562 -17.457031 7.992188 -17.6875 7.078125 -17.6875 C 6.429688 -17.6875 5.882812 -17.59375 5.4375 -17.40625 C 4.988281 -17.21875 4.519531 -16.976562 4.03125 -16.6875 C 3.664062 -16.457031 3.421875 -16.34375 3.296875 -16.34375 C 2.972656 -16.34375 2.660156 -16.5625 2.359375 -17 C 2.054688 -17.4375 1.90625 -17.832031 1.90625 -18.1875 C 1.90625 -18.675781 2.195312 -19.109375 2.78125 -19.484375 C 3.363281 -19.867188 4.085938 -20.160156 4.953125 -20.359375 C 5.816406 -20.566406 6.671875 -20.671875 7.515625 -20.671875 C 9.503906 -20.671875 11.054688 -20.171875 12.171875 -19.171875 C 13.296875 -18.179688 13.859375 -16.859375 13.859375 -15.203125 C 13.859375 -14.460938 13.753906 -13.785156 13.546875 -13.171875 C 13.347656 -12.554688 13.003906 -11.882812 12.515625 -11.15625 C 12.023438 -10.425781 11.300781 -9.472656 10.34375 -8.296875 L 6.015625 -2.953125 L 13.359375 -2.953125 C 13.628906 -2.953125 13.820312 -2.851562 13.9375 -2.65625 C 14.0625 -2.46875 14.125 -2.148438 14.125 -1.703125 L 14.125 -1.25 C 14.125 -0.800781 14.0625 -0.476562 13.9375 -0.28125 C 13.820312 -0.09375 13.628906 0 13.359375 0 Z M 1.875 0 "/></g></g></g><g fill="rgb(94.509888%, 52.549744%, 26.669312%)" fill-opacity="1"><g transform="translate(297.467861, 68.012878)"><g><path d="M 7.34375 0.203125 C 5.84375 0.203125 4.429688 0.015625 3.109375 -0.359375 C 1.796875 -0.742188 1.140625 -1.265625 1.140625 -1.921875 C 1.140625 -2.234375 1.289062 -2.640625 1.59375 -3.140625 C 1.894531 -3.640625 2.171875 -3.890625 2.421875 -3.890625 C 2.554688 -3.890625 2.820312 -3.789062 3.21875 -3.59375 C 3.820312 -3.34375 4.390625 -3.140625 4.921875 -2.984375 C 5.460938 -2.828125 6.09375 -2.75 6.8125 -2.75 C 7.75 -2.75 8.535156 -3.019531 9.171875 -3.5625 C 9.816406 -4.113281 10.140625 -4.925781 10.140625 -6 C 10.140625 -7.144531 9.832031 -7.976562 9.21875 -8.5 C 8.601562 -9.03125 7.664062 -9.296875 6.40625 -9.296875 L 5.53125 -9.296875 C 5.25 -9.296875 5.050781 -9.394531 4.9375 -9.59375 C 4.820312 -9.800781 4.765625 -10.117188 4.765625 -10.546875 L 4.765625 -10.984375 C 4.765625 -11.441406 4.820312 -11.765625 4.9375 -11.953125 C 5.050781 -12.148438 5.25 -12.25 5.53125 -12.25 L 6.203125 -12.25 C 7.273438 -12.25 8.09375 -12.535156 8.65625 -13.109375 C 9.21875 -13.679688 9.5 -14.367188 9.5 -15.171875 C 9.5 -15.890625 9.273438 -16.488281 8.828125 -16.96875 C 8.378906 -17.445312 7.6875 -17.6875 6.75 -17.6875 C 6.050781 -17.6875 5.46875 -17.625 5 -17.5 C 4.53125 -17.375 4.09375 -17.210938 3.6875 -17.015625 C 3.414062 -16.859375 3.203125 -16.78125 3.046875 -16.78125 C 2.804688 -16.78125 2.53125 -17.019531 2.21875 -17.5 C 1.90625 -17.976562 1.75 -18.390625 1.75 -18.734375 C 1.75 -19.316406 2.320312 -19.785156 3.46875 -20.140625 C 4.625 -20.492188 5.894531 -20.671875 7.28125 -20.671875 C 9.09375 -20.671875 10.539062 -20.21875 11.625 -19.3125 C 12.707031 -18.40625 13.25 -17.148438 13.25 -15.546875 C 13.25 -14.554688 12.988281 -13.695312 12.46875 -12.96875 C 11.945312 -12.238281 11.257812 -11.695312 10.40625 -11.34375 L 10.40625 -11.21875 C 11.5 -10.851562 12.359375 -10.210938 12.984375 -9.296875 C 13.609375 -8.378906 13.921875 -7.269531 13.921875 -5.96875 C 13.921875 -4.632812 13.617188 -3.503906 13.015625 -2.578125 C 12.421875 -1.660156 11.628906 -0.96875 10.640625 -0.5 C 9.648438 -0.03125 8.550781 0.203125 7.34375 0.203125 Z M 7.34375 0.203125 "/></g></g></g><g fill="rgb(100%, 100%, 100%)" fill-opacity="1"><g transform="translate(162.89002, 102.116311)"><g><path d="M 10.984375 0.203125 C 7.710938 0.203125 5.300781 -0.640625 3.75 -2.328125 C 2.207031 -4.023438 1.4375 -6.671875 1.4375 -10.265625 C 1.4375 -17.203125 4.660156 -20.671875 11.109375 -20.671875 C 12.066406 -20.671875 13.03125 -20.566406 14 -20.359375 C 14.976562 -20.160156 15.738281 -19.90625 16.28125 -19.59375 C 16.769531 -19.3125 17.015625 -19.015625 17.015625 -18.703125 C 17.015625 -18.472656 16.921875 -18.164062 16.734375 -17.78125 C 16.546875 -17.40625 16.332031 -17.070312 16.09375 -16.78125 C 15.851562 -16.488281 15.632812 -16.34375 15.4375 -16.34375 C 15.375 -16.34375 15.140625 -16.4375 14.734375 -16.625 C 14.328125 -16.820312 13.816406 -17 13.203125 -17.15625 C 12.585938 -17.3125 11.867188 -17.390625 11.046875 -17.390625 C 9.117188 -17.390625 7.691406 -16.804688 6.765625 -15.640625 C 5.835938 -14.472656 5.375 -12.671875 5.375 -10.234375 C 5.375 -7.835938 5.835938 -6.039062 6.765625 -4.84375 C 7.691406 -3.65625 9.097656 -3.0625 10.984375 -3.0625 C 11.890625 -3.0625 12.671875 -3.160156 13.328125 -3.359375 C 13.992188 -3.554688 14.628906 -3.800781 15.234375 -4.09375 C 15.546875 -4.25 15.757812 -4.328125 15.875 -4.328125 C 16.09375 -4.328125 16.3125 -4.1875 16.53125 -3.90625 C 16.757812 -3.625 16.953125 -3.296875 17.109375 -2.921875 C 17.265625 -2.554688 17.34375 -2.296875 17.34375 -2.140625 C 17.34375 -1.691406 17.007812 -1.28125 16.34375 -0.90625 C 15.71875 -0.550781 14.90625 -0.273438 13.90625 -0.078125 C 12.914062 0.109375 11.941406 0.203125 10.984375 0.203125 Z M 10.984375 0.203125 "/></g></g></g><g fill="rgb(100%, 100%, 100%)" fill-opacity="1"><g transform="translate(180.98446, 102.116311)"><g><path d="M 10.703125 0.203125 C 7.722656 0.203125 5.429688 -0.691406 3.828125 -2.484375 C 2.234375 -4.273438 1.4375 -6.867188 1.4375 -10.265625 C 1.4375 -13.628906 2.234375 -16.203125 3.828125 -17.984375 C 5.429688 -19.773438 7.722656 -20.671875 10.703125 -20.671875 C 13.679688 -20.671875 15.960938 -19.78125 17.546875 -18 C 19.140625 -16.226562 19.9375 -13.648438 19.9375 -10.265625 C 19.9375 -6.867188 19.140625 -4.273438 17.546875 -2.484375 C 15.960938 -0.691406 13.679688 0.203125 10.703125 0.203125 Z M 10.703125 -3.0625 C 12.410156 -3.0625 13.71875 -3.675781 14.625 -4.90625 C 15.53125 -6.132812 15.984375 -7.921875 15.984375 -10.265625 C 15.984375 -12.597656 15.535156 -14.367188 14.640625 -15.578125 C 13.742188 -16.785156 12.429688 -17.390625 10.703125 -17.390625 C 8.960938 -17.390625 7.640625 -16.785156 6.734375 -15.578125 C 5.828125 -14.367188 5.375 -12.597656 5.375 -10.265625 C 5.375 -7.921875 5.828125 -6.132812 6.734375 -4.90625 C 7.640625 -3.675781 8.960938 -3.0625 10.703125 -3.0625 Z M 10.703125 -3.0625 "/></g></g></g><g fill="rgb(100%, 100%, 100%)" fill-opacity="1"><g transform="translate(202.352853, 102.116311)"><g><path d="M 3.765625 0.0625 C 2.734375 0.0625 2.21875 -0.222656 2.21875 -0.796875 L 2.21875 -19.671875 C 2.21875 -20.234375 2.734375 -20.515625 3.765625 -20.515625 L 4.828125 -20.515625 C 5.253906 -20.515625 5.597656 -20.46875 5.859375 -20.375 C 6.117188 -20.28125 6.328125 -20.097656 6.484375 -19.828125 L 13.96875 -8.390625 C 14.363281 -7.828125 14.707031 -7.242188 15 -6.640625 L 15.109375 -6.671875 C 15.078125 -7.117188 15.0625 -7.78125 15.0625 -8.65625 L 15.0625 -19.671875 C 15.0625 -20.234375 15.578125 -20.515625 16.609375 -20.515625 L 17.25 -20.515625 C 18.28125 -20.515625 18.796875 -20.234375 18.796875 -19.671875 L 18.796875 -0.796875 C 18.796875 -0.222656 18.28125 0.0625 17.25 0.0625 L 16.3125 0.0625 C 15.90625 0.0625 15.578125 0.015625 15.328125 -0.078125 C 15.085938 -0.179688 14.878906 -0.359375 14.703125 -0.609375 L 7.046875 -12.25 C 6.617188 -12.851562 6.273438 -13.425781 6.015625 -13.96875 L 5.90625 -13.9375 C 5.945312 -13.488281 5.96875 -12.828125 5.96875 -11.953125 L 5.96875 -0.796875 C 5.96875 -0.222656 5.453125 0.0625 4.421875 0.0625 Z M 3.765625 0.0625 "/></g></g></g><g fill="rgb(100%, 100%, 100%)" fill-opacity="1"><g transform="translate(223.370475, 102.116311)"><g><path d="M 7.390625 0.203125 C 6.085938 0.203125 4.925781 0.0664062 3.90625 -0.203125 C 2.882812 -0.472656 2.085938 -0.816406 1.515625 -1.234375 C 1.035156 -1.597656 0.796875 -1.925781 0.796875 -2.21875 C 0.796875 -2.59375 0.988281 -3.054688 1.375 -3.609375 C 1.757812 -4.160156 2.082031 -4.4375 2.34375 -4.4375 C 2.457031 -4.4375 2.695312 -4.332031 3.0625 -4.125 C 3.664062 -3.8125 4.257812 -3.554688 4.84375 -3.359375 C 5.4375 -3.160156 6.125 -3.0625 6.90625 -3.0625 C 7.78125 -3.0625 8.515625 -3.269531 9.109375 -3.6875 C 9.703125 -4.113281 10 -4.742188 10 -5.578125 C 10 -6.109375 9.847656 -6.550781 9.546875 -6.90625 C 9.242188 -7.269531 8.867188 -7.570312 8.421875 -7.8125 C 7.972656 -8.0625 7.347656 -8.351562 6.546875 -8.6875 L 5.53125 -9.125 C 4.632812 -9.507812 3.882812 -9.921875 3.28125 -10.359375 C 2.675781 -10.796875 2.175781 -11.382812 1.78125 -12.125 C 1.394531 -12.875 1.203125 -13.8125 1.203125 -14.9375 C 1.203125 -16.164062 1.507812 -17.210938 2.125 -18.078125 C 2.738281 -18.941406 3.5625 -19.585938 4.59375 -20.015625 C 5.625 -20.453125 6.753906 -20.671875 7.984375 -20.671875 C 8.859375 -20.671875 9.703125 -20.570312 10.515625 -20.375 C 11.335938 -20.175781 11.972656 -19.914062 12.421875 -19.59375 C 12.828125 -19.300781 13.03125 -19.003906 13.03125 -18.703125 C 13.03125 -18.359375 12.863281 -17.90625 12.53125 -17.34375 C 12.207031 -16.789062 11.921875 -16.515625 11.671875 -16.515625 C 11.566406 -16.515625 11.40625 -16.5625 11.1875 -16.65625 C 10.976562 -16.757812 10.816406 -16.835938 10.703125 -16.890625 C 9.921875 -17.222656 9.09375 -17.390625 8.21875 -17.390625 C 7.164062 -17.390625 6.390625 -17.179688 5.890625 -16.765625 C 5.390625 -16.347656 5.140625 -15.816406 5.140625 -15.171875 C 5.140625 -14.609375 5.285156 -14.144531 5.578125 -13.78125 C 5.867188 -13.425781 6.226562 -13.140625 6.65625 -12.921875 C 7.09375 -12.703125 7.726562 -12.429688 8.5625 -12.109375 C 9.675781 -11.660156 10.59375 -11.21875 11.3125 -10.78125 C 12.03125 -10.351562 12.644531 -9.742188 13.15625 -8.953125 C 13.675781 -8.171875 13.9375 -7.164062 13.9375 -5.9375 C 13.9375 -3.882812 13.3125 -2.347656 12.0625 -1.328125 C 10.820312 -0.304688 9.265625 0.203125 7.390625 0.203125 Z M 7.390625 0.203125 "/></g></g></g><g fill="rgb(100%, 100%, 100%)" fill-opacity="1"><g transform="translate(237.986344, 102.116311)"><g><path d="M 10.40625 0.203125 C 7.757812 0.203125 5.710938 -0.40625 4.265625 -1.625 C 2.828125 -2.84375 2.109375 -4.550781 2.109375 -6.75 L 2.109375 -19.671875 C 2.109375 -20.234375 2.625 -20.515625 3.65625 -20.515625 L 4.390625 -20.515625 C 5.421875 -20.515625 5.9375 -20.234375 5.9375 -19.671875 L 5.9375 -6.90625 C 5.9375 -5.769531 6.351562 -4.84375 7.1875 -4.125 C 8.03125 -3.414062 9.101562 -3.0625 10.40625 -3.0625 C 11.707031 -3.0625 12.78125 -3.421875 13.625 -4.140625 C 14.476562 -4.867188 14.90625 -5.789062 14.90625 -6.90625 L 14.90625 -19.671875 C 14.90625 -20.234375 15.421875 -20.515625 16.453125 -20.515625 L 17.15625 -20.515625 C 18.1875 -20.515625 18.703125 -20.234375 18.703125 -19.671875 L 18.703125 -6.75 C 18.703125 -4.550781 17.984375 -2.84375 16.546875 -1.625 C 15.109375 -0.40625 13.0625 0.203125 10.40625 0.203125 Z M 10.40625 0.203125 "/></g></g></g><g fill="rgb(100%, 100%, 100%)" fill-opacity="1"><g transform="translate(258.799346, 102.116311)"><g><path d="M 3.515625 0 C 3.140625 0 2.863281 -0.0859375 2.6875 -0.265625 C 2.507812 -0.441406 2.421875 -0.710938 2.421875 -1.078125 L 2.421875 -19.671875 C 2.421875 -20.234375 2.9375 -20.515625 3.96875 -20.515625 L 4.703125 -20.515625 C 5.253906 -20.515625 5.648438 -20.445312 5.890625 -20.3125 C 6.128906 -20.175781 6.25 -19.960938 6.25 -19.671875 L 6.25 -3.28125 L 13.1875 -3.28125 C 13.457031 -3.28125 13.648438 -3.175781 13.765625 -2.96875 C 13.878906 -2.757812 13.9375 -2.441406 13.9375 -2.015625 L 13.9375 -1.25 C 13.9375 -0.820312 13.878906 -0.503906 13.765625 -0.296875 C 13.648438 -0.0976562 13.457031 0 13.1875 0 Z M 3.515625 0 "/></g></g></g><g fill="rgb(100%, 100%, 100%)" fill-opacity="1"><g transform="translate(272.947507, 102.116311)"><g><path d="M 7.65625 0.0625 C 6.625 0.0625 6.109375 -0.222656 6.109375 -0.796875 L 6.109375 -17.1875 L 1.140625 -17.1875 C 0.867188 -17.1875 0.664062 -17.285156 0.53125 -17.484375 C 0.40625 -17.679688 0.34375 -18.003906 0.34375 -18.453125 L 0.34375 -19.203125 C 0.34375 -19.648438 0.40625 -19.972656 0.53125 -20.171875 C 0.664062 -20.367188 0.867188 -20.46875 1.140625 -20.46875 L 14.90625 -20.46875 C 15.175781 -20.46875 15.375 -20.367188 15.5 -20.171875 C 15.632812 -19.972656 15.703125 -19.648438 15.703125 -19.203125 L 15.703125 -18.453125 C 15.703125 -18.003906 15.632812 -17.679688 15.5 -17.484375 C 15.375 -17.285156 15.175781 -17.1875 14.90625 -17.1875 L 9.96875 -17.1875 L 9.96875 -0.796875 C 9.96875 -0.222656 9.453125 0.0625 8.421875 0.0625 Z M 7.65625 0.0625 "/></g></g></g><g fill="rgb(100%, 100%, 100%)" fill-opacity="1"><g transform="translate(288.995713, 102.116311)"><g><path d="M 3.765625 0.09375 C 2.710938 0.09375 2.1875 -0.203125 2.1875 -0.796875 L 2.1875 -19.671875 C 2.1875 -20.253906 2.710938 -20.546875 3.765625 -20.546875 L 4.5 -20.546875 C 5.53125 -20.546875 6.046875 -20.253906 6.046875 -19.671875 L 6.046875 -0.796875 C 6.046875 -0.203125 5.53125 0.09375 4.5 0.09375 Z M 3.765625 0.09375 "/></g></g></g><g fill="rgb(100%, 100%, 100%)" fill-opacity="1"><g transform="translate(297.268296, 102.116311)"><g><path d="M 3.765625 0.0625 C 2.734375 0.0625 2.21875 -0.222656 2.21875 -0.796875 L 2.21875 -19.671875 C 2.21875 -20.234375 2.734375 -20.515625 3.765625 -20.515625 L 4.828125 -20.515625 C 5.253906 -20.515625 5.597656 -20.46875 5.859375 -20.375 C 6.117188 -20.28125 6.328125 -20.097656 6.484375 -19.828125 L 13.96875 -8.390625 C 14.363281 -7.828125 14.707031 -7.242188 15 -6.640625 L 15.109375 -6.671875 C 15.078125 -7.117188 15.0625 -7.78125 15.0625 -8.65625 L 15.0625 -19.671875 C 15.0625 -20.234375 15.578125 -20.515625 16.609375 -20.515625 L 17.25 -20.515625 C 18.28125 -20.515625 18.796875 -20.234375 18.796875 -19.671875 L 18.796875 -0.796875 C 18.796875 -0.222656 18.28125 0.0625 17.25 0.0625 L 16.3125 0.0625 C 15.90625 0.0625 15.578125 0.015625 15.328125 -0.078125 C 15.085938 -0.179688 14.878906 -0.359375 14.703125 -0.609375 L 7.046875 -12.25 C 6.617188 -12.851562 6.273438 -13.425781 6.015625 -13.96875 L 5.90625 -13.9375 C 5.945312 -13.488281 5.96875 -12.828125 5.96875 -11.953125 L 5.96875 -0.796875 C 5.96875 -0.222656 5.453125 0.0625 4.421875 0.0625 Z M 3.765625 0.0625 "/></g></g></g><g fill="rgb(100%, 100%, 100%)" fill-opacity="1"><g transform="translate(318.285918, 102.116311)"><g><path d="M 16.484375 -11.078125 C 16.859375 -11.078125 17.128906 -10.992188 17.296875 -10.828125 C 17.472656 -10.660156 17.5625 -10.394531 17.5625 -10.03125 L 17.5625 -2.015625 C 17.5625 -1.179688 16.867188 -0.601562 15.484375 -0.28125 C 14.109375 0.0390625 12.5625 0.203125 10.84375 0.203125 C 7.6875 0.203125 5.328125 -0.640625 3.765625 -2.328125 C 2.210938 -4.023438 1.4375 -6.648438 1.4375 -10.203125 C 1.4375 -17.179688 4.660156 -20.671875 11.109375 -20.671875 C 12.003906 -20.671875 12.925781 -20.582031 13.875 -20.40625 C 14.820312 -20.226562 15.597656 -19.988281 16.203125 -19.6875 C 16.816406 -19.382812 17.125 -19.054688 17.125 -18.703125 C 17.125 -18.472656 17.03125 -18.164062 16.84375 -17.78125 C 16.664062 -17.40625 16.445312 -17.070312 16.1875 -16.78125 C 15.9375 -16.488281 15.71875 -16.34375 15.53125 -16.34375 C 15.46875 -16.34375 15.222656 -16.4375 14.796875 -16.625 C 14.378906 -16.820312 13.851562 -17 13.21875 -17.15625 C 12.59375 -17.3125 11.867188 -17.390625 11.046875 -17.390625 C 9.078125 -17.390625 7.640625 -16.796875 6.734375 -15.609375 C 5.828125 -14.421875 5.375 -12.648438 5.375 -10.296875 C 5.375 -5.472656 7.21875 -3.0625 10.90625 -3.0625 C 11.894531 -3.0625 12.832031 -3.148438 13.71875 -3.328125 L 13.71875 -7.8125 L 10.84375 -7.8125 C 10.570312 -7.8125 10.375 -7.90625 10.25 -8.09375 C 10.125 -8.289062 10.0625 -8.613281 10.0625 -9.0625 L 10.0625 -9.828125 C 10.0625 -10.273438 10.125 -10.59375 10.25 -10.78125 C 10.375 -10.976562 10.570312 -11.078125 10.84375 -11.078125 Z M 16.484375 -11.078125 "/></g></g></g><g fill="rgb(100%, 100%, 100%)" fill-opacity="1"><g transform="translate(337.898484, 102.116311)"><g/></g></g></svg>